name rise30.3154peak39.0474fall46.5389.mot
datacolumns 19
datarows 20
range 9.29663100000000 9.32830300000000
endheader
time	ground_force1_vx	ground_force1_vy	ground_force1_vz	ground_force1_px	ground_force1_py	ground_force1_pz	ground_force2_vx	ground_force2_vy	ground_force2_vz	ground_force2_px	ground_force2_py	ground_force2_pz	ground_torque1_x	ground_torque1_y	ground_torque1_z	ground_torque2_x	ground_torque2_y	ground_torque2_z	
9.29663100000000	-6.40857200000000	42.95056200000000	-9.81751300000000	0.31503700000000	0.00000000000000	0.08495100000000	-41.61278000000000	780.34758299999999	-58.58188400000000	0.15560500000000	0.00000000000000	-0.09476700000000	0.00000000000000	-7.26284700000000	0.00000000000000	0.00000000000000	-23.90359700000000	0.00000000000000	
9.29829800000000	-6.94406800000000	50.68656700000000	-11.03283000000000	0.32164600000000	0.00000000000000	0.08627900000000	-42.08261300000000	777.80832999999996	-58.34228800000000	0.15469600000000	0.00000000000000	-0.09472300000000	0.00000000000000	-8.25919200000000	0.00000000000000	0.00000000000000	-23.81383400000000	0.00000000000000	
9.29996900000000	-7.33396900000000	58.60634600000000	-12.13409500000000	0.32766400000000	0.00000000000000	0.08743900000000	-42.57292700000000	775.16677400000003	-58.08342600000000	0.15379200000000	0.00000000000000	-0.09467400000000	0.00000000000000	-9.18941500000000	0.00000000000000	0.00000000000000	-23.72508200000000	0.00000000000000	
9.30163400000000	-7.55999400000000	66.61312800000000	-13.09508900000000	0.33319100000000	0.00000000000000	0.08846200000000	-43.08347900000000	772.42093599999998	-57.80487000000000	0.15289600000000	0.00000000000000	-0.09462200000000	0.00000000000000	-10.03222500000000	0.00000000000000	0.00000000000000	-23.63733300000000	0.00000000000000	
9.30330500000000	-7.61159100000000	74.63082100000000	-13.89837900000000	0.33830700000000	0.00000000000000	0.08937200000000	-43.61392000000000	769.56873399999995	-57.50619600000000	0.15200700000000	0.00000000000000	-0.09456500000000	0.00000000000000	-10.77263900000000	0.00000000000000	0.00000000000000	-23.55055800000000	0.00000000000000	
9.30496900000000	-7.48576400000000	82.60666000000001	-14.53543200000000	0.34307100000000	0.00000000000000	0.09018800000000	-44.16379700000000	766.60799299999996	-57.18698200000000	0.15112800000000	0.00000000000000	-0.09450400000000	0.00000000000000	-11.40225800000000	0.00000000000000	0.00000000000000	-23.46470800000000	0.00000000000000	
9.30663500000000	-7.18632400000000	90.51148999999999	-15.00598900000000	0.34753300000000	0.00000000000000	0.09092600000000	-44.73255200000000	763.53645100000006	-56.84681600000000	0.15025900000000	0.00000000000000	-0.09443900000000	0.00000000000000	-11.91895300000000	0.00000000000000	0.00000000000000	-23.37971200000000	0.00000000000000	
9.30830200000000	-6.72270800000000	98.33805400000000	-15.31686600000000	0.35172900000000	0.00000000000000	0.09159700000000	-45.31952100000000	760.35176000000001	-56.48529600000000	0.14940200000000	0.00000000000000	-0.09436900000000	0.00000000000000	-12.32609300000000	0.00000000000000	0.00000000000000	-23.29548300000000	0.00000000000000	
9.30996800000000	-6.10855100000000	106.09777200000001	-15.48038200000000	0.35569300000000	0.00000000000000	0.09221000000000	-45.92393200000000	757.05150000000003	-56.10203200000000	0.14855700000000	0.00000000000000	-0.09429400000000	0.00000000000000	-12.63144900000000	0.00000000000000	0.00000000000000	-23.21191100000000	0.00000000000000	
9.31163300000000	-5.36015900000000	113.81654800000000	-15.51261000000000	0.35944900000000	0.00000000000000	0.09277500000000	-46.54490800000000	753.63318200000003	-55.69664900000000	0.14772500000000	0.00000000000000	-0.09421500000000	0.00000000000000	-12.84593000000000	0.00000000000000	0.00000000000000	-23.12886600000000	0.00000000000000	
9.31329800000000	-4.49503500000000	121.53011700000000	-15.43163600000000	0.36301900000000	0.00000000000000	0.09329600000000	-47.18146800000000	750.09425699999997	-55.26879400000000	0.14690700000000	0.00000000000000	-0.09413000000000	0.00000000000000	-12.98226600000000	0.00000000000000	0.00000000000000	-23.04620100000000	0.00000000000000	
9.31496800000000	-3.53056800000000	129.27938399999999	-15.25594100000000	0.36642000000000	0.00000000000000	0.09378100000000	-47.83252500000000	746.43212900000003	-54.81813200000000	0.14610500000000	0.00000000000000	-0.09404100000000	0.00000000000000	-13.05377800000000	0.00000000000000	0.00000000000000	-22.96374900000000	0.00000000000000	
9.31663400000000	-2.48295400000000	137.10614699999999	-15.00304400000000	0.36966900000000	0.00000000000000	0.09423300000000	-48.49689100000000	742.64416000000006	-54.34435700000000	0.14531900000000	0.00000000000000	-0.09394700000000	0.00000000000000	-13.07330000000000	0.00000000000000	0.00000000000000	-22.88132500000000	0.00000000000000	
9.31829900000000	-1.36640200000000	145.04946000000001	-14.68844800000000	0.37277600000000	0.00000000000000	0.09465600000000	-49.17327600000000	738.72768199999996	-53.84718900000000	0.14455000000000	0.00000000000000	-0.09384700000000	0.00000000000000	-13.05233000000000	0.00000000000000	0.00000000000000	-22.79872600000000	0.00000000000000	
9.31996500000000	-0.19263300000000	153.14279800000000	-14.32492400000000	0.37575300000000	0.00000000000000	0.09505400000000	-49.86029300000000	734.68001200000003	-53.32638100000000	0.14379900000000	0.00000000000000	-0.09374200000000	0.00000000000000	-13.00041900000000	0.00000000000000	0.00000000000000	-22.71573200000000	0.00000000000000	
9.32163800000000	1.02934100000000	161.41212600000000	-13.92213100000000	0.37861000000000	0.00000000000000	0.09543000000000	-50.55645700000000	730.49845900000003	-52.78172100000000	0.14306600000000	0.00000000000000	-0.09363200000000	0.00000000000000	-12.92482000000000	0.00000000000000	0.00000000000000	-22.63210700000000	0.00000000000000	
9.32329700000000	2.29319200000000	169.87482199999999	-13.48653500000000	0.38135400000000	0.00000000000000	0.09578500000000	-51.26019200000000	726.18034100000000	-52.21303700000000	0.14235400000000	0.00000000000000	-0.09351600000000	0.00000000000000	-12.83037500000000	0.00000000000000	0.00000000000000	-22.54760100000000	0.00000000000000	
9.32497200000000	3.59505100000000	178.53940700000001	-13.02158500000000	0.38399200000000	0.00000000000000	0.09612200000000	-51.96983100000000	721.72299499999997	-51.62019700000000	0.14166200000000	0.00000000000000	-0.09339500000000	0.00000000000000	-12.71960100000000	0.00000000000000	0.00000000000000	-22.46194700000000	0.00000000000000	
9.32663600000000	4.93313200000000	187.40594400000001	-12.52808200000000	0.38653100000000	0.00000000000000	0.09644400000000	-52.68362200000000	717.12379599999997	-51.00311700000000	0.14099100000000	0.00000000000000	-0.09326800000000	0.00000000000000	-12.59293600000000	0.00000000000000	0.00000000000000	-22.37486700000000	0.00000000000000	
9.32830300000000	6.30727100000000	196.46694800000000	-12.00468400000000	0.38897500000000	0.00000000000000	0.09675000000000	-53.39973100000000	712.38017100000002	-50.36175700000000	0.14034200000000	0.00000000000000	-0.09313500000000	0.00000000000000	-12.44910000000000	0.00000000000000	0.00000000000000	-22.28607000000000	0.00000000000000	
